<svg width="278" height="318" viewBox="0 0 278 318" fill="none" xmlns="http://www.w3.org/2000/svg">
<path d="M64.1439 140.92C116.128 121.441 170.569 102.714 206.927 58.2839C209.622 54.9901 212.354 51.6356 214.254 47.8274C214.9 46.534 215.521 44.2785 214.309 43.4911C208.159 39.4962 185.648 61.1369 183.848 62.8123C123.431 119.053 89.4331 196.877 35 258" stroke="#FE5D29" stroke-width="3" stroke-linecap="round"/>
<path d="M75 178C109.655 173.622 143.995 169.243 178 161" stroke="#FE5D29" stroke-width="3" stroke-linecap="round"/>
<path d="M155.464 139C145.685 148.417 135.99 157.712 127.945 168.721C122.6 176.035 116.31 184.346 113.338 193.059C106.283 213.74 131.505 202.256 139.817 197.536C156.104 188.286 172.558 176.082 185.608 162.513C186.35 161.742 187.862 159.669 186.429 162.019C182.129 169.067 178.355 176.381 175.022 183.939C168.103 199.628 163.175 216.127 156.339 231.817C151.991 241.797 146.346 251.572 139.598 260.11C135.5 265.294 126.342 275.657 118.535 270.685C113.075 267.207 114.198 258.689 116.018 253.655C121.395 238.791 135.378 228.051 148.187 219.978C177.24 201.668 210.521 192.629 243.107 183.005" stroke="#002D7E" stroke-width="3" stroke-linecap="round"/>
<path d="M155.5 139C150 144 154 140 147.5 146.5C142.303 151.697 137.646 156 130.5 165.5C123.354 175 120.5 177.5 113 193.5" stroke="#FE5D29" stroke-width="3" stroke-linecap="round"/>
</svg>
